<?xml version="1.0" standalone="no"?>
<!DOCTYPE svg PUBLIC "-//W3C//DTD SVG 20010904//EN"
 "http://www.w3.org/TR/2001/REC-SVG-20010904/DTD/svg10.dtd">
<svg version="1.0" xmlns="http://www.w3.org/2000/svg"
 width="180.000000pt" height="180.000000pt" viewBox="0 0 180.000000 180.000000"
 preserveAspectRatio="xMidYMid meet">
<metadata>
Created by potrace 1.11, written by Peter Selinger 2001-2013
</metadata>
<g transform="translate(0.000000,180.000000) scale(0.100000,-0.100000)"
fill="#000000" stroke="none">
<path d="M0 1375 c0 -277 3 -425 10 -425 6 0 10 -9 10 -20 0 -11 -4 -20 -10
-20 -7 0 -10 -158 -10 -455 l0 -455 375 0 c318 0 375 2 375 14 0 8 -14 52 -31
98 -43 119 -43 118 -28 118 30 0 112 -123 142 -213 6 -15 24 -17 198 -17 171
0 193 2 205 17 12 17 14 17 29 -2 15 -19 16 -18 9 15 -6 31 -5 33 9 21 9 -7
19 -21 22 -32 6 -18 19 -19 251 -19 l244 0 0 900 0 900 -900 0 -900 0 0 -425z
m1315 255 c3 -5 2 -10 -4 -10 -5 0 -13 5 -16 10 -3 6 -2 10 4 10 5 0 13 -4 16
-10z m-189 -186 c-8 -21 10 -53 51 -90 25 -22 32 -36 27 -50 -4 -14 -3 -15 4
-5 5 7 15 10 21 7 8 -5 4 -14 -11 -27 -20 -16 -21 -20 -8 -29 8 -5 10 -10 4
-10 -7 0 -15 -10 -19 -22 -11 -35 -14 -78 -4 -72 5 3 9 -2 9 -11 0 -9 -5 -13
-10 -10 -6 4 -16 2 -23 -3 -7 -6 -37 -13 -69 -17 -53 -7 -58 -5 -85 21 -24 25
-28 38 -31 93 -1 37 -9 75 -17 88 -13 19 -13 22 -1 17 11 -4 15 3 14 33 0 28
7 46 28 70 25 28 36 32 78 33 40 0 47 -3 42 -16z m68 -29 c-4 -8 -8 -15 -10
-15 -2 0 -4 7 -4 15 0 8 4 15 10 15 5 0 7 -7 4 -15z m16 -327 c0 20 58 14 80
-8 l20 -20 -64 0 c-46 0 -65 4 -69 14 -7 18 15 28 25 12 5 -8 8 -7 8 2z m470
-118 c0 -5 -5 -10 -11 -10 -5 0 -7 5 -4 10 3 6 8 10 11 10 2 0 4 -4 4 -10z
m-583 -37 c10 -43 5 -153 -7 -153 -4 0 -11 35 -15 78 -4 42 -11 85 -16 95 -8
13 -6 17 9 17 14 0 22 -10 29 -37z m-917 -13 c0 -5 -5 -10 -11 -10 -5 0 -7 5
-4 10 3 6 8 10 11 10 2 0 4 -4 4 -10z m34 -39 c6 -10 -43 -25 -52 -16 -3 3 2
5 11 5 10 0 17 5 17 10 0 12 17 13 24 1z m321 -11 c3 -5 1 -10 -4 -10 -6 0
-11 5 -11 10 0 6 2 10 4 10 3 0 8 -4 11 -10z m-250 -20 c3 -5 -1 -10 -9 -10
-9 0 -19 0 -23 -1 -4 0 -9 4 -11 10 -5 14 35 14 43 1z m850 0 c3 -5 1 -10 -4
-10 -6 0 -11 5 -11 10 0 6 2 10 4 10 3 0 8 -4 11 -10z m14 -60 c0 -10 -3 -8
-9 5 -12 27 -12 43 0 25 5 -8 9 -22 9 -30z m151 -10 c12 -8 10 -9 -7 -7 -12 2
-26 6 -29 10 -11 11 19 8 36 -3z m-120 -175 c0 -37 -3 -40 -30 -39 -14 0 -27
-2 -30 -6 -3 -3 -25 4 -50 17 -39 20 -42 23 -20 24 14 1 35 1 46 0 12 -1 27 5
34 14 20 25 50 19 50 -10z m-163 -1 c-3 -3 -12 -4 -19 -1 -8 3 -5 6 6 6 11 1
17 -2 13 -5z m117 -89 c-4 -8 -10 -12 -15 -9 -14 8 -10 24 6 24 9 0 12 -6 9
-15z m-85 -26 c-16 -10 -23 -4 -14 10 3 6 11 8 17 5 6 -4 5 -9 -3 -15z m126
-211 c-5 -53 -16 -92 -40 -143 l-34 -70 -59 1 c-51 0 -64 5 -100 34 -23 18
-42 36 -42 40 0 3 17 12 38 19 20 7 47 22 59 33 12 12 27 17 34 13 7 -5 10 -4
5 3 -3 6 1 17 10 24 10 7 40 36 68 65 28 28 55 52 59 52 5 1 5 -32 2 -71z"/>
<path d="M1156 313 c-6 -14 -5 -15 5 -6 7 7 10 15 7 18 -3 3 -9 -2 -12 -12z"/>
<path d="M1136 185 c-9 -26 -7 -32 5 -12 6 10 9 21 6 23 -2 3 -7 -2 -11 -11z"/>
</g>
</svg>
